<?xml version="1.0" encoding="utf-8"?>
<!-- Generator: Adobe Illustrator 16.0.0, SVG Export Plug-In . SVG Version: 6.00 Build 0)  -->
<!DOCTYPE svg PUBLIC "-//W3C//DTD SVG 1.1//EN" "http://www.w3.org/Graphics/SVG/1.1/DTD/svg11.dtd">
<svg version="1.1" id="Layer_1" xmlns="http://www.w3.org/2000/svg" xmlns:xlink="http://www.w3.org/1999/xlink" x="0px" y="0px"
	 width="525.766px" height="120px" viewBox="0 0 525.766 120" enable-background="new 0 0 525.766 120" xml:space="preserve">
<path fill="#2962FF" d="M458.241,97.68c-6.814-3.729-12.166-8.877-16.062-15.451c-3.887-6.572-5.824-13.91-5.824-22.006
	c0-8.097,1.938-15.432,5.824-22.006c3.896-6.573,9.24-11.725,16.062-15.453c6.813-3.728,14.471-5.593,22.969-5.593
	c8.418,0,16.035,1.865,22.85,5.593c6.813,3.728,12.146,8.858,15.992,15.392c3.854,6.535,5.773,13.89,5.773,22.066
	c0,8.179-1.924,15.537-5.773,22.067c-3.848,6.535-9.182,11.665-15.992,15.396c-6.813,3.729-14.432,5.594-22.85,5.594
	C472.709,103.271,465.053,101.408,458.241,97.68z M497.866,88.359c4.93-2.805,8.813-6.672,11.664-11.604
	c2.846-4.931,4.27-10.438,4.27-16.536c0-6.091-1.424-11.604-4.27-16.536c-2.853-4.93-6.734-8.795-11.664-11.603
	c-4.937-2.805-10.482-4.21-16.656-4.21s-11.766,1.405-16.775,4.21c-5.01,2.808-8.938,6.673-11.778,11.603
	c-2.853,4.932-4.271,10.444-4.271,16.536c0,6.096,1.422,11.605,4.271,16.536c2.844,4.937,6.771,8.806,11.778,11.604
	c5.015,2.809,10.604,4.209,16.775,4.209S492.934,91.168,497.866,88.359z"/>
<path fill="#2962FF" d="M147.558,93.173c-6.252-6.414-9.38-15.635-9.38-27.659V17.651h12.026v47.381
	c0,18.038,7.896,27.057,23.689,27.057c7.697,0,13.589-2.226,17.677-6.674c4.09-4.449,6.134-11.242,6.134-20.383V17.651h11.665
	v47.861c0,12.104-3.127,21.348-9.381,27.721c-6.252,6.371-14.992,9.561-26.214,9.561C162.549,102.792,153.812,99.587,147.558,93.173
	z"/>
<path fill="#2962FF" d="M234.02,18.133h12.025v84.178H234.02V18.133z"/>
<path fill="#2962FF" d="M286.15,97.686c-6.774-3.729-12.086-8.855-15.938-15.396c-3.852-6.526-5.771-13.89-5.771-22.067
	c0-8.176,1.927-15.531,5.771-22.066c3.852-6.533,9.184-11.665,15.992-15.392c6.813-3.728,14.436-5.593,22.848-5.593
	c6.574,0,12.587,1.104,18.041,3.307c5.449,2.207,10.104,5.473,13.947,9.802l-7.813,7.576c-6.336-6.655-14.23-9.982-23.689-9.982
	c-6.254,0-11.903,1.405-16.955,4.21c-5.051,2.807-9,6.674-11.845,11.604c-2.85,4.93-4.271,10.443-4.271,16.534
	c0,6.095,1.424,11.605,4.271,16.541c2.845,4.932,6.794,8.799,11.845,11.604c5.054,2.807,10.701,4.209,16.955,4.209
	c9.379,0,17.273-3.366,23.689-10.103l7.813,7.573c-3.849,4.329-8.521,7.615-14.008,9.858c-5.494,2.246-11.527,3.367-18.104,3.367
	C300.521,103.277,292.924,101.414,286.15,97.686z"/>
<path fill="#2962FF" d="M385.659,64.908l-15.396,15.633v21.771h-12.021V18.132h12.021V65.15l45.696-47.02h13.709L393.713,56.01
	l38.242,46.299h-14.068L385.659,64.908z"/>
<path fill="#2962FF" d="M481.09,15.963c-24.438,0-44.258,19.816-44.258,44.258c0,24.444,19.814,44.257,44.258,44.257
	c24.441,0,44.256-19.813,44.256-44.257C525.346,35.779,505.532,15.963,481.09,15.963z M481.09,92.636
	c-17.902,0-32.414-14.517-32.414-32.417c0-17.9,14.512-32.413,32.414-32.413c17.9,0,32.412,14.512,32.412,32.413
	C513.502,78.124,498.991,92.636,481.09,92.636z"/>
<g>
	<path fill="#2962FF" d="M119.833,60.223c0,33.136-26.863,60-60,60c-33.136,0-60-26.863-60-60c0-33.14,26.864-60.001,60-60.001
		C92.97,0.222,119.833,27.083,119.833,60.223z"/>
	<path fill="#FFFFFF" d="M59.833,14.606c-26.214,0-47.468,21.253-47.468,47.466c0,26.22,21.254,47.474,47.468,47.474
		c26.219,0,47.469-21.254,47.469-47.474C107.302,35.859,86.052,14.606,59.833,14.606z M59.508,92.798
		c-16.971,0-30.722-13.751-30.722-30.729c0-16.963,13.751-30.721,30.722-30.721c16.97,0,30.724,13.756,30.724,30.721
		C90.232,79.047,76.477,92.798,59.508,92.798z"/>
	<path fill="#FFFFFF" d="M75.522,118.145c6.125-1.654,11.86-4.252,17.042-7.634L60.227,78.173L47.889,90.511L75.522,118.145z"/>
</g>
</svg>
